<svg width="14" height="13" viewBox="0 0 14 13" fill="none" xmlns="http://www.w3.org/2000/svg">
<path d="M13.032 4.44283L11.8653 3.85949C11.6495 3.75449 11.3812 3.83616 11.2762 4.05199C11.1653 4.27366 11.2528 4.53616 11.4687 4.64116L12.3962 5.10199V7.89616L10.2087 7.90199V1.91699C10.2087 0.750326 9.42699 0.166992 8.45866 0.166992H3.79199C2.82366 0.166992 2.04199 0.750326 2.04199 1.91699V11.3962H1.16699C0.927826 11.3962 0.729492 11.5945 0.729492 11.8337C0.729492 12.0728 0.927826 12.2712 1.16699 12.2712H11.0837C11.3228 12.2712 11.5212 12.0728 11.5212 11.8337C11.5212 11.5945 11.3228 11.3962 11.0837 11.3962H10.2087V8.77699L12.8337 8.77116C13.0787 8.77116 13.2712 8.57283 13.2712 8.33366V4.83366C13.2712 4.67033 13.1778 4.51866 13.032 4.44283ZM3.50033 3.01949C3.50033 2.20866 3.99616 1.91699 4.60283 1.91699H7.65366C8.25449 1.91699 8.75033 2.20866 8.75033 3.01949V3.73699C8.75033 4.54199 8.25449 4.83366 7.64783 4.83366H4.60283C3.99616 4.83366 3.50033 4.54199 3.50033 3.73116V3.01949ZM3.79199 6.14616H5.54199C5.78116 6.14616 5.97949 6.34449 5.97949 6.58366C5.97949 6.82283 5.78116 7.02116 5.54199 7.02116H3.79199C3.55283 7.02116 3.35449 6.82283 3.35449 6.58366C3.35449 6.34449 3.55283 6.14616 3.79199 6.14616Z" fill="#90A3BF"/>
</svg>
